<svg width="52" height="36" viewBox="0 0 52 36" fill="none" xmlns="http://www.w3.org/2000/svg">
<path d="M4.7358 8.77C2.76055 7.52236 2.40388 4.7874 3.9931 3.07491V3.07491C5.39254 1.56693 7.74828 1.47553 9.26035 2.87055L32.9358 24.7134C33.3881 25.1306 33.2166 25.8813 32.628 26.0607V26.0607C32.4064 26.1283 32.1663 26.096 31.9704 25.9723L4.7358 8.77Z" fill="#ACACAC"/>
<path d="M35.9061 32.32C33.9315 32.0021 32.6536 30.0606 33.1424 28.1213V28.1213C34.019 24.643 38.9822 24.704 39.7731 28.2027L39.9499 28.9846C40.1791 29.999 40.8358 30.8646 41.7509 31.3588L46.7699 34.0693C46.7699 34.0693 44.8357 33.5939 43.5766 33.3963C42.7059 33.2596 41.459 33.1461 40.8872 33.0977C40.682 33.0803 40.4775 33.0561 40.2741 33.0234L35.9061 32.32Z" fill="#ACACAC"/>
</svg>
