<svg width="35" height="27" viewBox="0 0 35 27" fill="none" xmlns="http://www.w3.org/2000/svg">
<path d="M29.1667 23.1429V24.1071C29.1667 25.7048 27.8609 27 26.25 27H2.91667C1.30582 27 0 25.7048 0 24.1071V8.67857C0 7.08087 1.30582 5.78571 2.91667 5.78571H3.88889V18.3214C3.88889 20.98 6.06958 23.1429 8.75 23.1429H29.1667ZM35 18.3214V2.89286C35 1.29516 33.6942 0 32.0833 0H8.75C7.13915 0 5.83333 1.29516 5.83333 2.89286V18.3214C5.83333 19.9191 7.13915 21.2143 8.75 21.2143H32.0833C33.6942 21.2143 35 19.9191 35 18.3214ZM15.5556 5.78571C15.5556 7.38342 14.2497 8.67857 12.6389 8.67857C11.028 8.67857 9.72222 7.38342 9.72222 5.78571C9.72222 4.18801 11.028 2.89286 12.6389 2.89286C14.2497 2.89286 15.5556 4.18801 15.5556 5.78571ZM9.72222 14.4643L13.0955 11.1185C13.3803 10.8361 13.842 10.8361 14.1268 11.1185L16.5278 13.5L24.7622 5.3328C25.0469 5.05039 25.5086 5.05039 25.7934 5.3328L31.1111 10.6071V17.3571H9.72222V14.4643Z" fill="#1E1AEC"/>
<path d="M29.1667 23.1429V24.1071C29.1667 25.7048 27.8609 27 26.25 27H2.91667C1.30582 27 0 25.7048 0 24.1071V8.67857C0 7.08087 1.30582 5.78571 2.91667 5.78571H3.88889V18.3214C3.88889 20.98 6.06958 23.1429 8.75 23.1429H29.1667ZM35 18.3214V2.89286C35 1.29516 33.6942 0 32.0833 0H8.75C7.13915 0 5.83333 1.29516 5.83333 2.89286V18.3214C5.83333 19.9191 7.13915 21.2143 8.75 21.2143H32.0833C33.6942 21.2143 35 19.9191 35 18.3214ZM15.5556 5.78571C15.5556 7.38342 14.2497 8.67857 12.6389 8.67857C11.028 8.67857 9.72222 7.38342 9.72222 5.78571C9.72222 4.18801 11.028 2.89286 12.6389 2.89286C14.2497 2.89286 15.5556 4.18801 15.5556 5.78571ZM9.72222 14.4643L13.0955 11.1185C13.3803 10.8361 13.842 10.8361 14.1268 11.1185L16.5278 13.5L24.7622 5.3328C25.0469 5.05039 25.5086 5.05039 25.7934 5.3328L31.1111 10.6071V17.3571H9.72222V14.4643Z" fill="#1E1AEC"/>
</svg>
